<?xml version="1.0" standalone="no"?>
<!DOCTYPE svg PUBLIC "-//W3C//DTD SVG 20010904//EN"
 "http://www.w3.org/TR/2001/REC-SVG-20010904/DTD/svg10.dtd">
<svg version="1.0" xmlns="http://www.w3.org/2000/svg"
 width="40.000000pt" height="40.000000pt" viewBox="0 0 40.000000 40.000000"
 preserveAspectRatio="xMidYMid meet">

<g transform="translate(0.000000,40.000000) scale(0.100000,-0.100000)"
fill="#000000" stroke="none">
<path d="M145 390 c-12 -5 1 -6 35 -3 30 3 57 7 59 9 9 8 -75 2 -94 -6z"/>
<path d="M288 369 c46 -23 48 -27 28 -54 -14 -19 -15 -19 -50 -2 -73 34 -147
11 -179 -56 -21 -43 -21 -73 -2 -111 20 -38 19 -53 -5 -66 -17 -9 -23 -6 -40
22 -11 18 -20 40 -21 48 0 9 -2 10 -5 3 -14 -34 67 -122 131 -143 158 -52 308
124 235 275 -23 47 -89 105 -119 105 -9 0 3 -9 27 -21z m-50 -118 c-8 -22 -80
-91 -88 -86 -16 10 -12 57 7 77 16 18 88 26 81 9z m-13 -113 c22 10 29 9 46
-7 27 -25 18 -38 -32 -51 -29 -8 -50 -8 -75 0 -43 15 -50 27 -29 50 14 15 21
17 41 8 18 -8 31 -8 49 0z"/>
<path d="M75 349 c-36 -32 -65 -77 -65 -101 0 -7 9 5 19 28 10 22 36 55 57 72
21 18 35 32 32 32 -4 0 -23 -14 -43 -31z"/>
<path d="M2 200 c0 -19 2 -27 5 -17 2 9 2 25 0 35 -3 9 -5 1 -5 -18z"/>
</g>
</svg>
